<?xml version="1.0" standalone="no"?>
<!DOCTYPE svg PUBLIC "-//W3C//DTD SVG 20010904//EN"
 "http://www.w3.org/TR/2001/REC-SVG-20010904/DTD/svg10.dtd">
<svg version="1.0" xmlns="http://www.w3.org/2000/svg"
 width="64.000000pt" height="64.000000pt" viewBox="0 0 64.000000 64.000000"
 preserveAspectRatio="xMidYMid meet">

<g transform="translate(0.000000,64.000000) scale(0.100000,-0.100000)"
fill="#000000" stroke="none">
<path d="M200 435 c-68 -68 -122 -127 -119 -129 3 -3 63 53 134 124 71 72 125
130 120 130 -6 0 -66 -56 -135 -125z"/>
<path d="M238 403 l-158 -157 0 -67 c0 -100 -3 -99 234 -99 265 0 246 -19 246
249 0 234 1 231 -104 231 l-60 0 -158 -157z m272 134 c0 -1 -25 -27 -55 -57
l-55 -54 0 57 0 57 55 0 c30 0 55 -1 55 -3z m30 -197 c0 -104 -2 -190 -5 -190
-2 0 -33 56 -67 124 l-63 123 60 66 c33 36 63 66 68 67 4 0 7 -85 7 -190z
m-160 125 l0 -55 -57 0 -57 0 54 55 c30 30 56 55 57 55 2 0 3 -25 3 -55z m-20
-78 c0 -1 -25 -27 -55 -57 l-55 -54 0 57 0 57 55 0 c30 0 55 -1 55 -3z m104
-138 c38 -71 66 -133 63 -135 -5 -5 -215 98 -257 126 -12 8 -3 21 50 75 35 36
67 65 70 65 4 0 37 -59 74 -131z m-234 66 l0 -55 -57 0 -57 0 54 55 c30 30 56
55 57 55 2 0 3 -25 3 -55z m-20 -78 c0 -1 -25 -27 -55 -57 l-55 -54 0 57 0 57
55 0 c30 0 55 -1 55 -3z m279 -132 c2 -3 -83 -5 -190 -5 l-193 0 67 68 68 69
122 -64 c66 -35 123 -66 126 -68z"/>
</g>
</svg>
