<?xml version="1.0" standalone="no"?>
<!DOCTYPE svg PUBLIC "-//W3C//DTD SVG 20010904//EN"
 "http://www.w3.org/TR/2001/REC-SVG-20010904/DTD/svg10.dtd">
<svg version="1.0" xmlns="http://www.w3.org/2000/svg"
 width="96.000000pt" height="96.000000pt" viewBox="0 0 96.000000 96.000000"
 preserveAspectRatio="xMidYMid meet">

<g transform="translate(0.000000,96.000000) scale(0.100000,-0.100000)"
fill="#000000" stroke="none">
<path d="M448 833 c-9 -10 -36 -59 -61 -109 l-46 -91 -116 -18 c-105 -16 -118
-20 -128 -42 -10 -22 -4 -30 77 -112 l87 -87 -20 -113 c-31 -172 -18 -181 140
-100 l99 51 99 -51 c158 -81 171 -72 140 99 l-21 113 88 88 c81 82 87 90 77
112 -10 22 -23 26 -128 42 l-116 18 -46 91 c-51 102 -68 126 -93 126 -9 0 -24
-8 -32 -17z m96 -112 c62 -122 41 -108 205 -132 53 -8 85 -18 88 -27 4 -8 -26
-46 -76 -96 -46 -46 -81 -90 -81 -101 0 -11 7 -64 17 -118 11 -67 13 -101 6
-108 -7 -7 -44 8 -117 46 l-106 57 -106 -57 c-73 -38 -110 -53 -117 -46 -7 7
-5 41 6 108 10 54 17 107 17 118 0 11 -35 55 -81 101 -50 50 -80 88 -76 96 3
9 35 19 88 27 164 24 143 10 205 132 30 60 59 109 64 109 5 0 34 -49 64 -109z"/>
</g>
</svg>
