<?xml version="1.0" standalone="no"?>
<!DOCTYPE svg PUBLIC "-//W3C//DTD SVG 20010904//EN"
 "http://www.w3.org/TR/2001/REC-SVG-20010904/DTD/svg10.dtd">
<svg version="1.0" xmlns="http://www.w3.org/2000/svg"
 width="64.000000pt" height="64.000000pt" viewBox="0 0 64.000000 64.000000"
 preserveAspectRatio="xMidYMid meet">

<g transform="translate(0.000000,64.000000) scale(0.100000,-0.100000)"
fill="#000000" stroke="none">
<path d="M303 558 c-6 -7 -24 -41 -41 -74 -33 -66 -26 -62 -139 -79 -73 -11
-75 -28 -8 -95 l59 -60 -12 -70 c-7 -39 -12 -77 -12 -84 0 -28 33 -25 100 9
l70 35 70 -35 c67 -34 100 -37 100 -9 0 7 -5 45 -12 84 l-12 70 59 60 c52 53
58 62 45 74 -8 8 -46 20 -85 26 -38 6 -72 13 -75 16 -2 3 -21 35 -40 72 -37
69 -50 81 -67 60z m62 -77 c37 -74 40 -76 128 -87 31 -3 60 -11 63 -16 4 -6
-19 -36 -51 -68 l-57 -58 11 -51 c14 -64 14 -111 1 -111 -5 0 -39 16 -74 36
l-66 36 -70 -38 c-38 -21 -73 -35 -77 -31 -4 4 -2 42 4 85 l12 77 -56 57 c-30
31 -53 60 -49 66 3 5 32 13 63 16 88 11 91 13 128 87 20 38 40 69 45 69 5 0
25 -31 45 -69z"/>
</g>
</svg>
