<?xml version="1.0" standalone="no"?>
<!DOCTYPE svg PUBLIC "-//W3C//DTD SVG 20010904//EN"
 "http://www.w3.org/TR/2001/REC-SVG-20010904/DTD/svg10.dtd">
<svg version="1.0" xmlns="http://www.w3.org/2000/svg"
 width="64.000000pt" height="64.000000pt" viewBox="0 0 64.000000 64.000000"
 preserveAspectRatio="xMidYMid meet">

<g transform="translate(0.000000,64.000000) scale(0.100000,-0.100000)"
fill="#000000" stroke="none">
<path d="M140 522 c-103 -55 -86 -213 36 -334 60 -60 123 -92 163 -83 16 3 49
21 73 38 145 104 201 273 117 356 -53 53 -145 50 -189 -7 l-21 -26 -22 27
c-40 48 -100 59 -157 29z m135 -32 c13 -13 27 -35 30 -51 4 -16 10 -29 15 -29
5 0 11 13 15 29 10 48 49 76 106 76 96 0 133 -82 89 -198 -26 -69 -103 -152
-168 -181 -41 -19 -43 -19 -84 0 -53 24 -129 98 -159 155 -31 59 -33 157 -4
189 11 12 29 26 40 31 32 14 95 3 120 -21z"/>
</g>
</svg>
