<?xml version="1.0" standalone="no"?>
<!DOCTYPE svg PUBLIC "-//W3C//DTD SVG 20010904//EN"
 "http://www.w3.org/TR/2001/REC-SVG-20010904/DTD/svg10.dtd">
<svg version="1.0" xmlns="http://www.w3.org/2000/svg"
 width="96.000000pt" height="96.000000pt" viewBox="0 0 96.000000 96.000000"
 preserveAspectRatio="xMidYMid meet">

<g transform="translate(0.000000,96.000000) scale(0.100000,-0.100000)"
fill="#000000" stroke="none">
<path d="M306 651 c-104 -104 -187 -194 -185 -200 2 -6 94 79 204 189 110 110
193 200 185 200 -8 0 -100 -85 -204 -189z"/>
<path d="M585 831 c-11 -5 -119 -109 -240 -230 l-220 -221 -3 -105 c-4 -101
-3 -105 22 -130 l26 -26 305 3 305 3 27 28 28 27 3 304 c3 373 12 350 -135
353 -54 2 -107 -1 -118 -6z m185 -24 c0 -1 -38 -40 -85 -87 l-85 -85 0 88 0
87 85 0 c47 0 85 -1 85 -3z m40 -302 c0 -157 -2 -285 -4 -285 -2 0 -46 80 -96
178 -50 97 -96 181 -101 187 -6 6 27 45 88 107 54 54 101 98 105 98 5 0 8
-128 8 -285z m-240 190 l0 -85 -87 0 -88 0 85 85 c47 47 86 85 87 85 2 0 3
-38 3 -85z m-20 -108 c0 -1 -40 -43 -90 -92 l-90 -90 0 93 0 92 90 0 c50 0 90
-1 90 -3z m148 -219 c56 -108 98 -199 94 -202 -4 -2 -99 43 -211 101 l-203
106 103 103 c57 57 106 100 110 96 3 -4 52 -96 107 -204z m-348 107 l0 -85
-87 0 -88 0 85 85 c47 47 86 85 87 85 2 0 3 -38 3 -85z m-30 -118 c0 -1 -38
-40 -85 -87 l-85 -85 0 88 0 87 85 0 c47 0 85 -1 85 -3z m268 -123 l154 -79
-283 -3 c-155 -1 -284 0 -287 3 -4 3 38 50 93 105 l98 98 36 -22 c20 -12 105
-58 189 -102z"/>
</g>
</svg>
