<?xml version="1.0" standalone="no"?>
<!DOCTYPE svg PUBLIC "-//W3C//DTD SVG 20010904//EN"
 "http://www.w3.org/TR/2001/REC-SVG-20010904/DTD/svg10.dtd">
<svg version="1.0" xmlns="http://www.w3.org/2000/svg"
 width="96.000000pt" height="96.000000pt" viewBox="0 0 96.000000 96.000000"
 preserveAspectRatio="xMidYMid meet">

<g transform="translate(0.000000,96.000000) scale(0.100000,-0.100000)"
fill="#000000" stroke="none">
<path d="M225 791 c-47 -22 -89 -64 -104 -104 -16 -40 -13 -135 4 -193 30
-103 128 -223 239 -295 101 -67 154 -61 270 25 153 116 239 294 212 440 -14
72 -107 146 -186 146 -49 0 -110 -30 -148 -74 l-32 -37 -32 37 c-61 70 -146
91 -223 55z m138 -25 c42 -18 76 -55 92 -103 17 -49 33 -48 51 2 39 116 180
151 265 66 67 -66 70 -159 10 -287 -50 -106 -196 -240 -282 -259 -76 -17 -252
122 -314 249 -62 125 -64 220 -8 287 47 56 120 73 186 45z"/>
</g>
</svg>
